<svg width="128" height="128" viewBox="0 0 128 128" fill="none" xmlns="http://www.w3.org/2000/svg">
<path d="M31.5 104.5C27.0817 104.5 23.5 100.918 23.5 96.5L23.5 89.2696C23.5 86.3312 25.1109 83.6292 27.6959 82.232L47.4803 71.5377C53.0748 68.5136 53.0748 60.4864 47.4803 57.4623L27.6959 46.768C25.1109 45.3708 23.5 42.6688 23.5 39.7304L23.5 32.5C23.5 28.0817 27.0817 24.5 31.5 24.5L96.5 24.5C100.918 24.5 104.5 28.0817 104.5 32.5V39.7928C104.5 42.6981 102.925 45.3751 100.385 46.786L81.0879 57.5067C75.6014 60.5548 75.6014 68.4452 81.0879 71.4933L100.385 82.214C102.925 83.6249 104.5 86.3019 104.5 89.2072V96.5C104.5 100.918 100.918 104.5 96.5 104.5L31.5 104.5Z" fill="black"/>
</svg>
