<svg width="128" height="128" viewBox="0 0 128 128" fill="none" xmlns="http://www.w3.org/2000/svg">
<g clip-path="url(#clip0)">
<rect width="128" height="128" rx="20" fill="black"/>
<path d="M36.7845 79.64C35.8978 80.06 35.0345 80.3867 34.1945 80.62C33.3545 80.8533 32.3745 81.0867 31.2545 81.32C28.3145 81.9267 26.1912 82.2767 24.8845 82.37C25.0245 82.8367 25.7245 83.3967 26.9845 84.05C27.8245 84.19 28.7345 84.0733 29.7145 83.7C30.7412 83.28 31.7912 82.9067 32.8645 82.58C33.9845 82.2067 35.0578 81.9967 36.0845 81.95C37.1578 81.9033 38.1612 82.3 39.0945 83.14C39.4678 83.98 39.7712 84.47 40.0045 84.61C40.2378 84.75 40.4478 84.82 40.6345 84.82C40.8212 84.82 41.0312 84.89 41.2645 85.03C41.4978 85.17 41.8245 85.7067 42.2445 86.64C42.7112 87.5733 42.5945 88.46 41.8945 89.3C41.2412 90.14 40.2145 90.8633 38.8145 91.47C37.4145 92.0767 35.7812 92.5667 33.9145 92.94C32.0478 93.3133 30.1812 93.57 28.3145 93.71C24.1145 94.0367 20.9178 93.71 18.7245 92.73C15.5512 91.6567 13.4978 89.5333 12.5645 86.36C11.3512 82.16 12.0278 77.26 14.5945 71.66C15.7612 69.0467 17.6045 66.2467 20.1245 63.26C22.3178 60.6467 24.7678 58.7567 27.4745 57.59C30.6012 56.2367 33.8678 55.6067 37.2745 55.7C40.9145 55.7933 43.4345 57.38 44.8345 60.46C45.5345 62.0933 45.6745 64.38 45.2545 67.32C44.5078 71.1467 43.5278 73.8533 42.3145 75.44C41.1012 76.98 39.2578 78.38 36.7845 79.64ZM32.7245 68.58C30.2512 68.0667 28.3145 69.4667 26.9145 72.78C26.4945 73.6667 26.1678 74.6 25.9345 75.58C27.5212 75.7667 29.2012 74.88 30.9745 72.92C31.6278 72.1267 32.1178 71.3333 32.4445 70.54C32.7712 69.7 32.8645 69.0467 32.7245 68.58ZM59.914 35.05C60.9407 33.79 62.1774 33.09 63.624 32.95C65.0707 32.81 66.4707 33.0433 67.824 33.65C69.1774 34.21 70.3207 35.0967 71.254 36.31C72.234 37.4767 72.7707 38.7833 72.864 40.23L72.234 42.26C72.7474 42.8667 73.1907 43.3567 73.564 43.73C73.984 44.1033 74.2174 44.6867 74.264 45.48C74.544 46.1333 73.3774 48.7233 70.764 53.25C69.6907 55.1167 68.5474 57.0767 67.334 59.13C66.1674 61.1367 65.2107 62.9333 64.464 64.52C65.024 64.38 65.584 64.2633 66.144 64.17C66.704 64.0767 67.264 63.96 67.824 63.82C71.2774 62.9333 73.6107 62.49 74.824 62.49C76.0374 62.4433 77.0407 62.56 77.834 62.84C79.9807 63.68 81.1007 64.9867 81.194 66.76C80.5407 68.3 78.0907 70.4467 73.844 73.2C72.864 73.8067 72.0707 74.32 71.464 74.74L65.374 79.08C65.0474 79.5933 64.814 80.0833 64.674 80.55V80.62C64.7674 80.8533 65.3507 81.18 66.424 81.6C67.544 82.02 68.5007 82.3933 69.294 82.72C71.1607 83.56 72.8174 84.7033 74.264 86.15C74.7307 86.6633 75.034 87.4333 75.174 88.46C75.314 89.44 75.1507 90.35 74.684 91.19C74.264 92.03 73.494 92.6367 72.374 93.01C71.254 93.3833 69.6907 93.22 67.684 92.52C64.744 91.2133 61.2674 88.2967 57.254 83.77C56.7874 85.4033 56.3207 87.0133 55.854 88.6C55.434 90.14 54.9674 91.7267 54.454 93.36C53.754 94.9467 52.1207 95.6933 49.554 95.6C48.5274 95.6 47.594 95.39 46.754 94.97C45.9607 94.55 45.494 93.99 45.354 93.29C44.9807 92.2633 44.794 91.4933 44.794 90.98C44.794 90.5133 44.9107 89.9533 45.144 89.3C46.2174 86.5933 46.894 84.4467 47.174 82.86C47.454 81.2267 47.6407 80.27 47.734 79.99C46.4274 79.15 45.6574 77.82 45.424 76C45.144 74.2267 45.564 72.64 46.684 71.24C48.1774 70.68 49.2507 70.26 49.904 69.98C50.184 68.2067 50.6507 66.2933 51.304 64.24C52.4707 60.5533 53.3574 57.3567 53.964 54.65C54.6174 51.9433 55.5274 48.8867 56.694 45.48C57.9074 42.0267 58.9807 38.55 59.914 35.05ZM98.455 83.21C99.855 82.8367 101.372 82.7433 103.005 82.93C104.638 83.1167 106.062 83.5833 107.275 84.33C108.488 85.0767 109.305 86.1033 109.725 87.41C110.192 88.7167 109.912 90.28 108.885 92.1C108.372 92.1467 107.322 92.31 105.735 92.59C104.195 92.87 102.375 93.1733 100.275 93.5C98.2217 93.8267 96.0284 94.13 93.695 94.41C91.4084 94.69 89.2617 94.8533 87.255 94.9C82.635 95.0867 80.0684 94.55 79.555 93.29C77.735 89.23 79.7417 84.26 85.575 78.38C87.115 76.8867 88.5384 75.5333 89.845 74.32C91.1517 73.06 92.2017 71.9867 92.995 71.1C93.835 70.2133 94.1384 69.56 93.905 69.14C93.0184 68.9533 92.4817 68.8133 92.295 68.72C91.9684 68.4867 91.1517 68.3 89.845 68.16C88.585 67.9733 87.605 67.53 86.905 66.83C86.2517 66.0833 85.9717 65.2433 86.065 64.31C86.205 63.33 86.6717 62.35 87.465 61.37C88.305 60.3433 89.425 59.4567 90.825 58.71C92.225 57.9633 93.7184 57.3333 95.305 56.82C96.9384 56.3067 98.595 55.8867 100.275 55.56C103.075 54.9533 106.388 54.5333 110.215 54.3C110.728 54.3 111.078 54.4867 111.265 54.86C111.498 55.1867 111.708 55.56 111.895 55.98C112.082 56.3533 112.315 56.7033 112.595 57.03C112.922 57.31 113.552 57.4033 114.485 57.31C115.418 57.17 116.072 57.5667 116.445 58.5C116.865 59.3867 116.982 60.5067 116.795 61.86C116.608 63.2133 116.165 64.6133 115.465 66.06C114.765 67.46 113.855 68.58 112.735 69.42C107.135 75.02 103.635 78.45 102.235 79.71L98.455 83.21ZM82.775 84.54C82.8217 84.4933 82.8217 84.4933 82.775 84.54C82.7284 84.5867 82.6584 84.6333 82.565 84.68C82.6117 84.68 82.6817 84.6333 82.775 84.54Z" fill="white"/>
</g>
<defs>
<clipPath id="clip0">
<rect width="128" height="128" rx="20" fill="white"/>
</clipPath>
</defs>
</svg>
